#tb 0: 1/1000000
#media_type 0: video
#codec_id 0: rawvideo
#dimensions 0: 720x480
#sar 0: 0/1
0,  132499000,  132499000,        0,  1382400, 0x00000000
0,  132499000,  132499000,        0,  1382400, 0x8c93c2ba
0,  137459000,  137459000,        0,  1382400, 0x00000000
0,  147355000,  147355000,        0,  1382400, 0xb02e32ca
0,  152088000,  152088000,        0,  1382400, 0x00000000
0,  180797000,  180797000,        0,  1382400, 0x83b71116
0,  183357000,  183357000,        0,  1382400, 0x00000000
0,  183433000,  183433000,        0,  1382400, 0x85547fd1
0,  185799000,  185799000,        0,  1382400, 0x00000000
0,  185909999,  185909999,        0,  1382400, 0x00000000
0,  185910000,  185910000,        0,  1382400, 0xb6a8f181
0,  188606000,  188606000,        0,  1382400, 0x00000000
0,  188663000,  188663000,        0,  1382400, 0xb64d1a2c
0,  189925000,  189925000,        0,  1382400, 0x00000000
0,  190014000,  190014000,        0,  1382400, 0x7b37ecf3
0,  191675000,  191675000,        0,  1382400, 0x00000000
0,  199724000,  199724000,        0,  1382400, 0xdc025bd1
0,  201089000,  201089000,        0,  1382400, 0x00000000
0,  201175000,  201175000,        0,  1382400, 0x688b294d
0,  202733000,  202733000,        0,  1382400, 0x00000000
0,  202819000,  202819000,        0,  1382400, 0xa2b33d1b
0,  204684000,  204684000,        0,  1382400, 0x00000000
0,  204762000,  204762000,        0,  1382400, 0xb3e525e3
0,  206730000,  206730000,        0,  1382400, 0x00000000
0,  206806000,  206806000,        0,  1382400, 0xaa8fbdd7
0,  208637000,  208637000,        0,  1382400, 0x00000000
0,  208716000,  208716000,        0,  1382400, 0x7b7f26dd
0,  209978000,  209978000,        0,  1382400, 0x00000000
0,  210051000,  210051000,        0,  1382400, 0x15e2f836
0,  211575000,  211575000,        0,  1382400, 0x00000000
0,  211644000,  211644000,        0,  1382400, 0x0fee9b0c
0,  214306000,  214306000,        0,  1382400, 0x00000000
0,  214380000,  214380000,        0,  1382400, 0x89d62791
0,  217144000,  217144000,        0,  1382400, 0x00000000
0,  217225000,  217225000,        0,  1382400, 0xa6a9fd74
0,  219591000,  219591000,        0,  1382400, 0x00000000
0,  219652000,  219652000,        0,  1382400, 0x7896178d
0,  221483000,  221483000,        0,  1382400, 0x00000000
0,  223531000,  223531000,        0,  1382400, 0x01751a52
0,  225863000,  225863000,        0,  1382400, 0x00000000
0,  227510000,  227510000,        0,  1382400, 0xa3959c6f
0,  230809000,  230809000,        0,  1382400, 0x00000000
0,  230872000,  230872000,        0,  1382400, 0x3d3ea47b
0,  233033000,  233033000,        0,  1382400, 0x00000000
0,  233124000,  233124000,        0,  1382400, 0x593f8b24
0,  237220000,  237220000,        0,  1382400, 0x00000000
0,  237303000,  237303000,        0,  1382400, 0x171f05ba
0,  240033000,  240033000,        0,  1382400, 0x00000000
0,  240106000,  240106000,        0,  1382400, 0xb014cdf1
0,  242165000,  242165000,        0,  1382400, 0x00000000
0,  273556000,  273556000,        0,  1382400, 0xd918e667
0,  275217000,  275217000,        0,  1382400, 0x00000000
0,  295445000,  295445000,        0,  1382400, 0xc9406331
0,  296776000,  296776000,        0,  1382400, 0x00000000
0,  300049000,  300049000,        0,  1382400, 0xaf08b10d
0,  301949000,  301949000,        0,  1382400, 0x00000000
0,  302034999,  302034999,        0,  1382400, 0x00000000
0,  302035000,  302035000,        0,  1382400, 0x853a9d93
0,  303559000,  303559000,        0,  1382400, 0x00000000
0,  304203000,  304203000,        0,  1382400, 0x7491a87d
0,  305898000,  305898000,        0,  1382400, 0x00000000
0,  305947000,  305947000,        0,  1382400, 0xf7383c58
0,  307881000,  307881000,        0,  1382400, 0x00000000
0,  307957000,  307957000,        0,  1382400, 0xe66be411
0,  309720000,  309720000,        0,  1382400, 0x00000000
0,  321295000,  321295000,        0,  1382400, 0xd6850362
0,  323263000,  323263000,        0,  1382400, 0x00000000
0,  323356000,  323356000,        0,  1382400, 0x3e1ed109
0,  324584000,  324584000,        0,  1382400, 0x00000000
0,  324640000,  324640000,        0,  1382400, 0x39c1b7bd
0,  326403000,  326403000,        0,  1382400, 0x00000000
0,  327193000,  327193000,        0,  1382400, 0x35b85f2e
0,  328285000,  328285000,        0,  1382400, 0x00000000
0,  328360999,  328360999,        0,  1382400, 0x00000000
0,  328361000,  328361000,        0,  1382400, 0x83f103e5
0,  329885000,  329885000,        0,  1382400, 0x00000000
0,  329946000,  329946000,        0,  1382400, 0xbc1ca9b3
0,  331106000,  331106000,        0,  1382400, 0x00000000
0,  331230000,  331230000,        0,  1382400, 0x94d4a51e
0,  332857000,  332857000,        0,  1382400, 0x00000000
0,  332924000,  332924000,        0,  1382400, 0xf88cdfde
0,  334687000,  334687000,        0,  1382400, 0x00000000
0,  342600000,  342600000,        0,  1382400, 0xdd51423b
0,  344431000,  344431000,        0,  1382400, 0x00000000
0,  346771000,  346771000,        0,  1382400, 0x08259fa4
0,  348329000,  348329000,        0,  1382400, 0x00000000
0,  357640000,  357640000,        0,  1382400, 0x1663fa34
0,  359767000,  359767000,        0,  1382400, 0x00000000
0,  359834000,  359834000,        0,  1382400, 0xda2ceb55
0,  361096000,  361096000,        0,  1382400, 0x00000000
